<?xml version="1.0" encoding="UTF-8"?>
<svg version="1.1" xmlns="http://www.w3.org/2000/svg" width="24" height="24">
<path d="M0 0 C3.125 1.9375 3.125 1.9375 5 5 C5.9114316 9.54073579 5.66699536 12.86363754 3.3125 16.875 C1.00498061 18.99542323 -1.23280894 20.53953805 -4 22 C-4 20.68 -4 19.36 -4 18 C-4.886875 18.103125 -5.77375 18.20625 -6.6875 18.3125 C-10 18 -10 18 -12.875 16 C-15.2405988 12.66033111 -15.77187196 10.93870985 -15.46875 6.9375 C-13.60111607 -0.7820536 -6.62949536 -1.31503105 0 0 Z M-11 4.125 C-12.47901666 6.89815624 -12.38601984 8.91184125 -12 12 C-11.10938785 13.97578739 -11.10938785 13.97578739 -9 15 C-6.31884069 15.53940483 -3.7366901 15.77568114 -1 16 C1.23079726 13.58330297 1.96940652 12.24984673 2.375 8.9375 C2.18741312 6.08417555 2.18741312 6.08417555 1 4.125 C-2.72298352 2.03082177 -7.27701648 2.03082177 -11 4.125 Z " fill="#000000" transform="translate(17,2)"/>
</svg>
