<?xml version="1.0" encoding="UTF-8"?>
<svg version="1.1" xmlns="http://www.w3.org/2000/svg" width="24" height="24">
<path d="M0 0 C1.2375 -0.01675781 2.475 -0.03351563 3.75 -0.05078125 C7 0.3125 7 0.3125 8.90234375 1.59765625 C10.45494733 4.02325401 10.59046907 6.34196342 10.48046875 9.17578125 C9.57860352 13.18651524 7.15742058 15.79665574 4 18.3125 C1 19.5625 1 19.5625 -2 19.3125 C-5.45792637 16.91855097 -7.66837669 14.80993496 -10 11.3125 C-10.30078125 9.12109375 -10.30078125 9.12109375 -10.3125 6.75 C-10.32925781 5.96496094 -10.34601562 5.17992187 -10.36328125 4.37109375 C-10.24339844 3.69175781 -10.12351562 3.01242188 -10 2.3125 C-6.33236683 -0.13258878 -4.36568225 0.01364276 0 0 Z M-7 4.3125 C-6.82741843 8.79962078 -6.43095011 10.81848402 -3.4375 14.25 C-2.633125 14.930625 -1.82875 15.61125 -1 16.3125 C2.80625982 14.81718364 4.77940501 12.72269944 7 9.3125 C7.33592508 6.6020393 7.33592508 6.6020393 7 4.3125 C3.54187931 3.44796983 -4.2646329 1.5771329 -7 4.3125 Z " fill="#000000" transform="translate(12,2.6875)"/>
</svg>
