<?xml version="1.0" encoding="UTF-8"?>
<svg version="1.1" xmlns="http://www.w3.org/2000/svg" width="96" height="96">
<path d="M0 0 C7.01077881 -0.10157378 14.02136725 -0.17153861 21.03271484 -0.21972656 C23.41690157 -0.23981893 25.80103915 -0.26709781 28.18505859 -0.30175781 C31.61568338 -0.35037859 35.04565555 -0.37299312 38.4765625 -0.390625 C39.53928375 -0.41127014 40.602005 -0.43191528 41.69692993 -0.45318604 C47.78815914 -0.45502527 51.40152111 -0.13629674 56 4 C59.48902095 9.23353143 59.18978878 14.69891803 59.31640625 20.80078125 C59.33718735 21.63715622 59.35796844 22.47353119 59.37937927 23.33525085 C59.44451034 25.99425421 59.5035895 28.65335228 59.5625 31.3125 C59.60571992 33.12045231 59.6493353 34.92839522 59.69335938 36.73632812 C59.80015416 41.15745622 59.90152325 45.57867912 60 50 C60.61359375 49.49855469 61.2271875 48.99710938 61.859375 48.48046875 C64 47 64 47 66.25 47.3125 C66.8275 47.539375 67.405 47.76625 68 48 C68.69921875 49.75 68.69921875 49.75 69 52 C67.70703125 54 67.70703125 54 65.8125 56 C65.16023438 56.6909375 64.50796875 57.381875 63.8359375 58.09375 C63.23007813 58.7228125 62.62421875 59.351875 62 60 C61.319375 60.825 60.63875 61.65 59.9375 62.5 C57.14403059 64.662686 55.47067068 64.42222271 52 64 C49.26171875 61.953125 49.26171875 61.953125 46.6875 59.25 C45.82511719 58.36828125 44.96273437 57.4865625 44.07421875 56.578125 C42.17030354 54.21167671 41.24008267 52.98481153 41 50 C41.495 49.01 41.495 49.01 42 48 C44.8125 47.8125 44.8125 47.8125 48 48 C49.69921875 49.51171875 49.69921875 49.51171875 51 51 C51.02473355 45.51904631 51.04287596 40.03812517 51.05493164 34.55712891 C51.05995792 32.69286534 51.06677992 30.8286057 51.07543945 28.96435547 C51.08757963 26.28351876 51.09324539 23.6027342 51.09765625 20.921875 C51.10281754 20.08944275 51.10797882 19.2570105 51.11329651 18.39935303 C51.11337204 17.61884583 51.11344757 16.83833862 51.11352539 16.03417969 C51.115746 15.35023132 51.11796661 14.66628296 51.12025452 13.96160889 C50.99213985 11.87178404 50.56725751 10.01152256 50 8 C45.30058289 6.80081793 40.74981443 6.88234928 35.9375 6.89453125 C34.15363369 6.88108196 32.36977866 6.86606004 30.5859375 6.84960938 C27.78768452 6.8267414 24.99071768 6.81254117 22.19238281 6.82495117 C19.48149102 6.83376514 16.77312956 6.8048907 14.0625 6.76953125 C13.22904053 6.78176224 12.39558105 6.79399323 11.53686523 6.80659485 C5.82924859 6.68768617 5.82924859 6.68768617 3.32763672 4.61312866 C1.93359375 2.9519043 1.93359375 2.9519043 0 0 Z " fill="#000000" transform="translate(26,18)"/>
<path d="M0 0 C4.03249573 0.74214529 5.540823 2.36120588 8.34765625 5.30859375 C9.21003906 6.1903125 10.07242187 7.07203125 10.9609375 7.98046875 C12.8534075 10.33269135 13.83903031 11.57747946 14.03515625 14.55859375 C12.59765625 16.30859375 12.59765625 16.30859375 11.03515625 17.55859375 C8.11998333 16.48458267 6.25705449 15.78049199 4.03515625 13.55859375 C3.9608571 18.87879397 3.90648378 24.19869044 3.87036133 29.51928711 C3.8552987 31.32825992 3.83484448 33.13719635 3.80883789 34.94604492 C3.77234305 37.5500589 3.75540468 40.15358895 3.7421875 42.7578125 C3.72670364 43.56320969 3.71121979 44.36860687 3.69526672 45.19841003 C3.69389998 49.78500073 3.98114942 52.87654339 7.03515625 56.55859375 C10.99377945 57.87813482 14.77712634 57.67437739 18.90234375 57.6640625 C20.6927204 57.67751706 22.48308582 57.69253994 24.2734375 57.70898438 C27.09365788 57.73182713 29.91260915 57.74608293 32.73291016 57.73364258 C35.45698012 57.7248245 38.17853427 57.75372403 40.90234375 57.7890625 C42.16194412 57.77071602 42.16194412 57.77071602 43.44699097 57.7519989 C49.20375251 57.87095237 49.20375251 57.87095237 51.7119751 59.94546509 C53.10595703 61.60668945 53.10595703 61.60668945 55.03515625 64.55859375 C48.02437744 64.66016753 41.013789 64.73013236 34.00244141 64.77832031 C31.61825468 64.79841268 29.2341171 64.82569156 26.85009766 64.86035156 C23.41947287 64.90897234 19.9895007 64.93158687 16.55859375 64.94921875 C15.4958725 64.96986389 14.43315125 64.99050903 13.33822632 65.01177979 C7.27171068 65.01361155 3.57002078 64.75553031 -0.96484375 60.55859375 C-2.70936306 57.68183243 -3.22466465 55.50207635 -3.28369141 52.15722656 C-3.3035611 51.29663635 -3.32343079 50.43604614 -3.34390259 49.54937744 C-3.3554538 48.62945007 -3.367005 47.70952271 -3.37890625 46.76171875 C-3.3982724 45.81294861 -3.41763855 44.86417847 -3.43759155 43.88665771 C-3.49730034 40.86072742 -3.54373808 37.83475891 -3.58984375 34.80859375 C-3.62803152 32.75519188 -3.66708372 30.70180589 -3.70703125 28.6484375 C-3.80299483 23.61861879 -3.88705821 18.5887251 -3.96484375 13.55859375 C-4.41859375 14.03554688 -4.87234375 14.5125 -5.33984375 15.00390625 C-7.24680721 16.82835687 -8.33194923 17.39403784 -10.96484375 17.55859375 C-12.71484375 16.12109375 -12.71484375 16.12109375 -13.96484375 14.55859375 C-12.58812411 10.4357578 -10.74187394 7.8503441 -7.71484375 4.74609375 C-6.9671875 3.95589844 -6.21953125 3.16570313 -5.44921875 2.3515625 C-2.96484375 0.55859375 -2.96484375 0.55859375 0 0 Z " fill="#000000" transform="translate(14.96484375,15.44140625)"/>
</svg>
