<?xml version="1.0" encoding="UTF-8"?>
<svg version="1.1" xmlns="http://www.w3.org/2000/svg" width="48" height="48">
<path d="M0 0 C3.93736123 -0.08696177 7.87447628 -0.14037835 11.8125 -0.1875 C13.49182617 -0.22520508 13.49182617 -0.22520508 15.20507812 -0.26367188 C16.27822266 -0.27333984 17.35136719 -0.28300781 18.45703125 -0.29296875 C19.9416687 -0.31653442 19.9416687 -0.31653442 21.45629883 -0.34057617 C24 0 24 0 25.78393555 1.33081055 C28.57760601 5.16544716 28.32004666 9.63653164 28.5625 14.1875 C28.60568359 14.93708984 28.64886719 15.68667969 28.69335938 16.45898438 C28.79922685 18.30578375 28.9000976 20.15286834 29 22 C30.32 22 31.64 22 33 22 C32.69762101 25.52775489 31.97019149 27.03808865 29.75 29.875 C27 32 27 32 24.5625 32.25 C20.73746755 30.38413051 18.54199743 27.34565297 16 24 C16.33 23.34 16.66 22.68 17 22 C18.65 22.33 20.3 22.66 22 23 C22 17.06 22 11.12 22 5 C20.66324219 4.97421875 19.32648437 4.9484375 17.94921875 4.921875 C16.19527962 4.86559888 14.44137464 4.80825143 12.6875 4.75 C11.36588867 4.72873047 11.36588867 4.72873047 10.01757812 4.70703125 C9.17001953 4.67480469 8.32246094 4.64257812 7.44921875 4.609375 C6.66893311 4.58842773 5.88864746 4.56748047 5.0847168 4.54589844 C2.27230394 3.80944743 1.50076377 2.40961792 0 0 Z " fill="#000000" transform="translate(15,9)"/>
<path d="M0 0 C3.32029115 1.49413102 5.2086805 3.30995033 7.5 6.125 C7.5 7.445 7.5 8.765 7.5 10.125 C5.85 9.795 4.2 9.465 2.5 9.125 C2.5 15.065 2.5 21.005 2.5 27.125 C3.83675781 27.15078125 5.17351563 27.1765625 6.55078125 27.203125 C8.30472038 27.25940112 10.05862536 27.31674857 11.8125 27.375 C13.13411133 27.39626953 13.13411133 27.39626953 14.48242188 27.41796875 C15.32998047 27.45019531 16.17753906 27.48242188 17.05078125 27.515625 C18.22120972 27.5470459 18.22120972 27.5470459 19.4152832 27.57910156 C22.22769606 28.31555257 22.99923623 29.71538208 24.5 32.125 C20.56263877 32.21196177 16.62552372 32.26537835 12.6875 32.3125 C11.56794922 32.33763672 10.44839844 32.36277344 9.29492188 32.38867188 C8.22177734 32.39833984 7.14863281 32.40800781 6.04296875 32.41796875 C5.05321045 32.4336792 4.06345215 32.44938965 3.04370117 32.46557617 C0.5 32.125 0.5 32.125 -1.28393555 30.79418945 C-4.07760601 26.95955284 -3.82004666 22.48846836 -4.0625 17.9375 C-4.10568359 17.18791016 -4.14886719 16.43832031 -4.19335938 15.66601562 C-4.29922685 13.81921625 -4.4000976 11.97213166 -4.5 10.125 C-5.82 10.125 -7.14 10.125 -8.5 10.125 C-8.19762101 6.59724511 -7.47019149 5.08691135 -5.25 2.25 C-2.5 0.125 -2.5 0.125 0 0 Z " fill="#000000" transform="translate(8.5,6.875)"/>
</svg>
